<mxfile host="65bd71144e">
    <diagram id="IHPbz9zNq3HA5-oOhhd5" name="Page-1">
        <mxGraphModel dx="427" dy="377" grid="0" gridSize="10" guides="1" tooltips="1" connect="1" arrows="1" fold="1" page="1" pageScale="1" pageWidth="850" pageHeight="1100" math="0" shadow="0">
            <root>
                <mxCell id="0"/>
                <mxCell id="1" parent="0"/>
                <mxCell id="137" value="" style="whiteSpace=wrap;html=1;aspect=fixed;fillColor=none;" vertex="1" parent="1">
                    <mxGeometry x="120" y="360" width="160" height="160" as="geometry"/>
                </mxCell>
                <mxCell id="140" value="" style="whiteSpace=wrap;html=1;aspect=fixed;fillColor=none;dashed=1;strokeColor=#FFFF00;" vertex="1" parent="1">
                    <mxGeometry x="80" y="320" width="160" height="160" as="geometry"/>
                </mxCell>
                <mxCell id="154" value="" style="rounded=0;whiteSpace=wrap;html=1;strokeColor=#FFFFFF;fillColor=none;" vertex="1" parent="1">
                    <mxGeometry x="160" y="380" width="60" height="40" as="geometry"/>
                </mxCell>
                <mxCell id="31" value="" style="whiteSpace=wrap;html=1;aspect=fixed;fillColor=none;" vertex="1" parent="1">
                    <mxGeometry x="40" y="80" width="160" height="160" as="geometry"/>
                </mxCell>
                <mxCell id="32" value="" style="shape=tape;whiteSpace=wrap;html=1;fillColor=none;" vertex="1" parent="1">
                    <mxGeometry x="50" y="100" width="50" height="30" as="geometry"/>
                </mxCell>
                <mxCell id="33" value="" style="ellipse;shape=cloud;whiteSpace=wrap;html=1;fillColor=none;" vertex="1" parent="1">
                    <mxGeometry x="140" y="84" width="30" height="30" as="geometry"/>
                </mxCell>
                <mxCell id="34" value="" style="rounded=0;whiteSpace=wrap;html=1;fillColor=none;rotation=-40;" vertex="1" parent="1">
                    <mxGeometry x="145" y="216" width="10" height="9" as="geometry"/>
                </mxCell>
                <mxCell id="35" value="" style="triangle;whiteSpace=wrap;html=1;fillColor=none;" vertex="1" parent="1">
                    <mxGeometry x="152" y="164" width="6" height="7" as="geometry"/>
                </mxCell>
                <mxCell id="38" value="" style="triangle;whiteSpace=wrap;html=1;fillColor=none;rotation=-90;" vertex="1" parent="1">
                    <mxGeometry x="144" y="186" width="6" height="7" as="geometry"/>
                </mxCell>
                <mxCell id="40" value="" style="shape=document;whiteSpace=wrap;html=1;boundedLbl=1;fillColor=none;" vertex="1" parent="1">
                    <mxGeometry x="170" y="130" width="20" height="10" as="geometry"/>
                </mxCell>
                <mxCell id="90" value="" style="whiteSpace=wrap;html=1;aspect=fixed;fillColor=none;" vertex="1" parent="1">
                    <mxGeometry x="240" y="80" width="160" height="160" as="geometry"/>
                </mxCell>
                <mxCell id="91" value="" style="shape=tape;whiteSpace=wrap;html=1;fillColor=none;" vertex="1" parent="1">
                    <mxGeometry x="250" y="100" width="50" height="30" as="geometry"/>
                </mxCell>
                <mxCell id="92" value="" style="ellipse;shape=cloud;whiteSpace=wrap;html=1;fillColor=none;" vertex="1" parent="1">
                    <mxGeometry x="340" y="84" width="30" height="30" as="geometry"/>
                </mxCell>
                <mxCell id="93" value="" style="rounded=0;whiteSpace=wrap;html=1;fillColor=none;rotation=-40;" vertex="1" parent="1">
                    <mxGeometry x="345" y="216" width="10" height="9" as="geometry"/>
                </mxCell>
                <mxCell id="94" value="" style="triangle;whiteSpace=wrap;html=1;fillColor=none;" vertex="1" parent="1">
                    <mxGeometry x="352" y="164" width="6" height="7" as="geometry"/>
                </mxCell>
                <mxCell id="95" value="" style="triangle;whiteSpace=wrap;html=1;fillColor=none;rotation=-90;" vertex="1" parent="1">
                    <mxGeometry x="344" y="186" width="6" height="7" as="geometry"/>
                </mxCell>
                <mxCell id="96" value="" style="shape=document;whiteSpace=wrap;html=1;boundedLbl=1;fillColor=none;" vertex="1" parent="1">
                    <mxGeometry x="370" y="130" width="20" height="10" as="geometry"/>
                </mxCell>
                <mxCell id="97" value="" style="whiteSpace=wrap;html=1;aspect=fixed;fillColor=none;" vertex="1" parent="1">
                    <mxGeometry x="240" y="80" width="80" height="80" as="geometry"/>
                </mxCell>
                <mxCell id="98" value="" style="whiteSpace=wrap;html=1;aspect=fixed;fillColor=none;" vertex="1" parent="1">
                    <mxGeometry x="320" y="160" width="80" height="80" as="geometry"/>
                </mxCell>
                <mxCell id="100" value="" style="whiteSpace=wrap;html=1;aspect=fixed;fillColor=none;" vertex="1" parent="1">
                    <mxGeometry x="440" y="80" width="160" height="160" as="geometry"/>
                </mxCell>
                <mxCell id="101" value="" style="shape=tape;whiteSpace=wrap;html=1;fillColor=none;" vertex="1" parent="1">
                    <mxGeometry x="450" y="100" width="50" height="30" as="geometry"/>
                </mxCell>
                <mxCell id="102" value="" style="ellipse;shape=cloud;whiteSpace=wrap;html=1;fillColor=none;" vertex="1" parent="1">
                    <mxGeometry x="540" y="84" width="30" height="30" as="geometry"/>
                </mxCell>
                <mxCell id="103" value="" style="rounded=0;whiteSpace=wrap;html=1;fillColor=none;rotation=-40;" vertex="1" parent="1">
                    <mxGeometry x="545" y="216" width="10" height="9" as="geometry"/>
                </mxCell>
                <mxCell id="104" value="" style="triangle;whiteSpace=wrap;html=1;fillColor=none;" vertex="1" parent="1">
                    <mxGeometry x="552" y="164" width="6" height="7" as="geometry"/>
                </mxCell>
                <mxCell id="105" value="" style="triangle;whiteSpace=wrap;html=1;fillColor=none;rotation=-90;" vertex="1" parent="1">
                    <mxGeometry x="544" y="186" width="6" height="7" as="geometry"/>
                </mxCell>
                <mxCell id="106" value="" style="shape=document;whiteSpace=wrap;html=1;boundedLbl=1;fillColor=none;" vertex="1" parent="1">
                    <mxGeometry x="570" y="130" width="20" height="10" as="geometry"/>
                </mxCell>
                <mxCell id="107" value="" style="whiteSpace=wrap;html=1;aspect=fixed;fillColor=none;" vertex="1" parent="1">
                    <mxGeometry x="440" y="80" width="80" height="80" as="geometry"/>
                </mxCell>
                <mxCell id="108" value="" style="whiteSpace=wrap;html=1;aspect=fixed;fillColor=none;" vertex="1" parent="1">
                    <mxGeometry x="520" y="160" width="80" height="80" as="geometry"/>
                </mxCell>
                <mxCell id="109" value="" style="whiteSpace=wrap;html=1;aspect=fixed;fillColor=none;" vertex="1" parent="1">
                    <mxGeometry x="520" y="80" width="40" height="40" as="geometry"/>
                </mxCell>
                <mxCell id="110" value="" style="whiteSpace=wrap;html=1;aspect=fixed;fillColor=none;" vertex="1" parent="1">
                    <mxGeometry x="560" y="120" width="40" height="40" as="geometry"/>
                </mxCell>
                <mxCell id="111" value="" style="whiteSpace=wrap;html=1;aspect=fixed;fillColor=none;" vertex="1" parent="1">
                    <mxGeometry x="520" y="160" width="40" height="40" as="geometry"/>
                </mxCell>
                <mxCell id="112" value="" style="whiteSpace=wrap;html=1;aspect=fixed;fillColor=none;" vertex="1" parent="1">
                    <mxGeometry x="560" y="200" width="40" height="40" as="geometry"/>
                </mxCell>
                <mxCell id="113" value="" style="whiteSpace=wrap;html=1;aspect=fixed;fillColor=none;" vertex="1" parent="1">
                    <mxGeometry x="640" y="80" width="160" height="160" as="geometry"/>
                </mxCell>
                <mxCell id="114" value="" style="shape=tape;whiteSpace=wrap;html=1;fillColor=none;" vertex="1" parent="1">
                    <mxGeometry x="650" y="100" width="50" height="30" as="geometry"/>
                </mxCell>
                <mxCell id="115" value="" style="ellipse;shape=cloud;whiteSpace=wrap;html=1;fillColor=none;" vertex="1" parent="1">
                    <mxGeometry x="740" y="84" width="30" height="30" as="geometry"/>
                </mxCell>
                <mxCell id="116" value="" style="rounded=0;whiteSpace=wrap;html=1;fillColor=none;rotation=-40;" vertex="1" parent="1">
                    <mxGeometry x="745" y="216" width="10" height="9" as="geometry"/>
                </mxCell>
                <mxCell id="117" value="" style="triangle;whiteSpace=wrap;html=1;fillColor=none;" vertex="1" parent="1">
                    <mxGeometry x="752" y="164" width="6" height="7" as="geometry"/>
                </mxCell>
                <mxCell id="118" value="" style="triangle;whiteSpace=wrap;html=1;fillColor=none;rotation=-90;" vertex="1" parent="1">
                    <mxGeometry x="744" y="186" width="6" height="7" as="geometry"/>
                </mxCell>
                <mxCell id="119" value="" style="shape=document;whiteSpace=wrap;html=1;boundedLbl=1;fillColor=none;" vertex="1" parent="1">
                    <mxGeometry x="770" y="130" width="20" height="10" as="geometry"/>
                </mxCell>
                <mxCell id="120" value="" style="whiteSpace=wrap;html=1;aspect=fixed;fillColor=none;" vertex="1" parent="1">
                    <mxGeometry x="640" y="80" width="80" height="80" as="geometry"/>
                </mxCell>
                <mxCell id="121" value="" style="whiteSpace=wrap;html=1;aspect=fixed;fillColor=none;" vertex="1" parent="1">
                    <mxGeometry x="720" y="160" width="80" height="80" as="geometry"/>
                </mxCell>
                <mxCell id="122" value="" style="whiteSpace=wrap;html=1;aspect=fixed;fillColor=none;" vertex="1" parent="1">
                    <mxGeometry x="720" y="80" width="40" height="40" as="geometry"/>
                </mxCell>
                <mxCell id="123" value="" style="whiteSpace=wrap;html=1;aspect=fixed;fillColor=none;" vertex="1" parent="1">
                    <mxGeometry x="760" y="120" width="40" height="40" as="geometry"/>
                </mxCell>
                <mxCell id="124" value="" style="whiteSpace=wrap;html=1;aspect=fixed;fillColor=none;" vertex="1" parent="1">
                    <mxGeometry x="720" y="160" width="40" height="40" as="geometry"/>
                </mxCell>
                <mxCell id="125" value="" style="whiteSpace=wrap;html=1;aspect=fixed;fillColor=none;" vertex="1" parent="1">
                    <mxGeometry x="760" y="200" width="40" height="40" as="geometry"/>
                </mxCell>
                <mxCell id="126" value="" style="whiteSpace=wrap;html=1;aspect=fixed;fillColor=none;" vertex="1" parent="1">
                    <mxGeometry x="720" y="160" width="20" height="20" as="geometry"/>
                </mxCell>
                <mxCell id="127" value="" style="whiteSpace=wrap;html=1;aspect=fixed;fillColor=none;" vertex="1" parent="1">
                    <mxGeometry x="740" y="180" width="20" height="20" as="geometry"/>
                </mxCell>
                <mxCell id="130" value="" style="shape=flexArrow;endArrow=classic;html=1;endWidth=10;endSize=4.45952380952381;" edge="1" parent="1">
                    <mxGeometry width="50" height="50" relative="1" as="geometry">
                        <mxPoint x="205" y="160" as="sourcePoint"/>
                        <mxPoint x="235" y="160" as="targetPoint"/>
                    </mxGeometry>
                </mxCell>
                <mxCell id="131" value="" style="shape=flexArrow;endArrow=classic;html=1;endWidth=10;endSize=4.45952380952381;" edge="1" parent="1">
                    <mxGeometry width="50" height="50" relative="1" as="geometry">
                        <mxPoint x="407" y="160" as="sourcePoint"/>
                        <mxPoint x="437" y="160" as="targetPoint"/>
                    </mxGeometry>
                </mxCell>
                <mxCell id="132" value="" style="shape=flexArrow;endArrow=classic;html=1;endWidth=10;endSize=4.45952380952381;" edge="1" parent="1">
                    <mxGeometry width="50" height="50" relative="1" as="geometry">
                        <mxPoint x="605" y="160" as="sourcePoint"/>
                        <mxPoint x="635" y="160" as="targetPoint"/>
                    </mxGeometry>
                </mxCell>
                <mxCell id="138" value="" style="whiteSpace=wrap;html=1;aspect=fixed;fillColor=none;" vertex="1" parent="1">
                    <mxGeometry x="120" y="360" width="80" height="80" as="geometry"/>
                </mxCell>
                <mxCell id="139" value="" style="whiteSpace=wrap;html=1;aspect=fixed;fillColor=none;" vertex="1" parent="1">
                    <mxGeometry x="200" y="440" width="80" height="80" as="geometry"/>
                </mxCell>
                <mxCell id="149" value="" style="shape=crossbar;whiteSpace=wrap;html=1;rounded=1;strokeColor=#FF0000;fillColor=none;" vertex="1" parent="1">
                    <mxGeometry x="80" y="300" width="160" height="20" as="geometry"/>
                </mxCell>
                <mxCell id="150" value="2l&lt;br&gt;" style="text;html=1;align=center;verticalAlign=middle;resizable=0;points=[];autosize=1;strokeColor=none;fillColor=none;" vertex="1" parent="1">
                    <mxGeometry x="144" y="290" width="30" height="30" as="geometry"/>
                </mxCell>
                <mxCell id="151" value="" style="shape=crossbar;whiteSpace=wrap;html=1;rounded=1;strokeColor=#FF0000;fillColor=none;" vertex="1" parent="1">
                    <mxGeometry x="120" y="340" width="80" height="20" as="geometry"/>
                </mxCell>
                <mxCell id="152" value="l" style="text;html=1;align=center;verticalAlign=middle;resizable=0;points=[];autosize=1;strokeColor=none;fillColor=none;" vertex="1" parent="1">
                    <mxGeometry x="145" y="330" width="30" height="30" as="geometry"/>
                </mxCell>
                <mxCell id="153" value="" style="ellipse;shape=cloud;whiteSpace=wrap;html=1;strokeColor=#FFFFFF;fillColor=none;" vertex="1" parent="1">
                    <mxGeometry x="157" y="377" width="64" height="44" as="geometry"/>
                </mxCell>
                <mxCell id="158" value="" style="ellipse;whiteSpace=wrap;html=1;aspect=fixed;strokeColor=#FFFFFF;fillColor=none;" vertex="1" parent="1">
                    <mxGeometry x="190" y="399.5" width="1" height="1" as="geometry"/>
                </mxCell>
            </root>
        </mxGraphModel>
    </diagram>
</mxfile>